<svg xmlns="http://www.w3.org/2000/svg" xmlns:xlink="http://www.w3.org/1999/xlink" version="1.1" id="Layer_1" x="0px" y="0px" width="100px" height="100px" viewBox="0 0 100 100" enable-background="new 0 0 100 100" xml:space="preserve">
<g>
	<path d="M83.898,95.652H55.946c-2.597,0-4.555-3.84-4.555-8.932V85.66c0-5.092,1.958-8.932,4.555-8.932h27.952   c2.597,0,4.555,3.84,4.555,8.932v1.061C88.453,91.812,86.495,95.652,83.898,95.652z M55.946,78.354   c-1.384,0-2.931,3.125-2.931,7.307v1.061c0,4.182,1.547,7.307,2.931,7.307h27.952c1.383,0,2.931-3.125,2.931-7.307V85.66   c0-4.182-1.548-7.307-2.931-7.307H55.946z"/>
</g>
<path d="M70.062,63.986c-0.897,0-1.624-0.727-1.624-1.625V30.438c0-9.258-7.531-16.79-16.789-16.79h-3.075  c-9.258,0-16.79,7.531-16.79,16.79v31.923c0,0.898-0.727,1.625-1.624,1.625h-6.496c-0.897,0-1.624-0.727-1.624-1.625V30.438  c0-14.63,11.903-26.534,26.533-26.534h3.075c14.631,0,26.533,11.903,26.533,26.534v31.923c0,0.898-0.727,1.625-1.624,1.625H70.062z"/>
<path d="M52.203,86.721V85.66c0-2.998,0.759-5.588,1.873-6.994l-34.815-0.025c-3.376-0.002-6.118,3.178-6.121,7.1v0.928  c-0.003,3.924,2.733,7.107,6.109,7.109l34.903,0.027C52.996,92.424,52.203,89.785,52.203,86.721z"/>
<path d="M83.898,95.652H55.946c-2.597,0-4.555-3.84-4.555-8.932V85.66c0-5.092,1.958-8.932,4.555-8.932h27.952  c2.597,0,4.555,3.84,4.555,8.932v1.061C88.453,91.812,86.495,95.652,83.898,95.652z M55.946,78.354  c-1.384,0-2.931,3.125-2.931,7.307v1.061c0,4.182,1.547,7.307,2.931,7.307h27.952c1.383,0,2.931-3.125,2.931-7.307V85.66  c0-4.182-1.548-7.307-2.931-7.307H55.946z"/>
<path d="M51.649,4.716h-3.075c-14.183,0-25.721,11.539-25.721,25.722V83.5h8.12V30.438c0-9.705,7.896-17.602,17.601-17.602h3.075  c9.705,0,17.602,7.896,17.602,17.602c0,0-0.009,39.302-0.009,39.332c0,2.237,1.82,4.058,4.058,4.058  c2.215,0,4.016-1.786,4.051-3.993l0.021-39.396C77.371,16.255,65.832,4.716,51.649,4.716z M73.306,72.226  c-0.483,0-0.932-0.145-1.312-0.388c-0.015-0.009-0.031-0.015-0.046-0.024c-0.066-0.045-0.124-0.101-0.187-0.151  c-0.06-0.049-0.123-0.093-0.178-0.146c-0.035-0.034-0.062-0.075-0.094-0.111c-0.073-0.081-0.146-0.161-0.208-0.251  c-0.017-0.025-0.028-0.054-0.044-0.079c-0.068-0.108-0.133-0.219-0.184-0.338c-0.007-0.016-0.01-0.032-0.016-0.048  c-0.054-0.134-0.099-0.271-0.129-0.414c0-0.003,0-0.006-0.001-0.009c-0.028-0.141-0.043-0.432-0.043-0.432  c-0.001-0.019,0.009-39.396,0.009-39.396c0-10.602-8.624-19.226-19.226-19.226h-3.075c-10.601,0-19.225,8.624-19.225,19.226v51.437  h-4.872V30.438c0-13.288,10.81-24.098,24.097-24.098h3.075c13.288,0,24.098,10.81,24.098,24.098c0,0,0.003,25.599,0.004,35.497  c-0.092-0.018-0.186-0.028-0.282-0.028c-0.812,0-1.469,0.657-1.469,1.469s0.657,1.469,1.469,1.469c0.097,0,0.19-0.011,0.282-0.028  c0,0.617,0,0.961,0,0.965C75.751,71.131,74.656,72.226,73.306,72.226z"/>
</svg>